:SAMPLES-PER-SECOND 30
:FULLY-SPECIFIED
:DEGREES
351
root  30.6286 35.6743 -23.3854 173.508 73.4084 167.397
RightUpLeg  -48.8387 -20.9493 11.4433
RightLeg  30.4146 -0.455848 -0.539089
RightFoot  8.55213 2.34499 -12.9678
RightToes  0.00048216 0.542163 -0.142577
Spine  51.966 -6.1189 10.9252
Spine1  10.2707 -2.36973 2.52909
HEad  -26.2211 -5.72756 -3.89517
LeftShoulder1  9.73404 -19.5925 -36.0185
LeftArm  -27.2322 -39.0933 -11.5457
LeftForeArm  23.0335 -22.6851 -3.7139
LeftHand  -0.25398 0.0180481 5.50724
RightShoulder  5.16869 13.2378 24.7286
RightArm  -13.0949 26.12 31.6553
RightForeArm  7.22684 -0.887637 6.15371
RightHand  -1.53036 5.06102 -17.2472
LeftUpLeg  -33.9573 22.9269 -3.76145
LeftLeg  77.9054 1.06123 7.52408
LeftFoot  -3.29199 -0.0226023 0.596705
LeftToes  1.06245e-005 4.65855e-005 -8.18504e-006
352
root  31.4807 35.9151 -23.8307 174.967 74.8015 166.663
RightUpLeg  -50.1874 -20.5817 12.0286
RightLeg  31.3528 0.351159 -0.0209978
RightFoot  7.3523 2.19706 -12.9748
RightToes  0.00048216 0.542163 -0.142577
Spine  53.7432 -5.81968 11.3781
Spine1  12.3546 -1.62071 2.37735
HEad  -30.6411 -6.6655 -3.55571
LeftShoulder1  9.50223 -21.117 -32.4716
LeftArm  -31.8609 -43.7891 -9.74851
LeftForeArm  23.5304 -19.1305 -3.35341
LeftHand  -0.25398 0.0180481 5.50724
RightShoulder  4.78048 13.4173 21.9567
RightArm  -18.8766 35.1577 28.4964
RightForeArm  4.37977 -2.91928 4.96289
RightHand  -1.50825 5.17269 -16.8345
LeftUpLeg  -42.0832 22.6165 -6.0735
LeftLeg  73.9041 1.0897 5.37675
LeftFoot  -4.77084 0.0924681 -1.04881
LeftToes  1.06245e-005 4.65855e-005 -8.18504e-006
353
root  32.2928 36.0874 -24.2725 174.34 76.2938 163.949
RightUpLeg  -51.5233 -19.84 11.9617
RightLeg  32.5274 1.01345 0.440135
RightFoot  6.11527 2.07683 -13.182
RightToes  0.00048216 0.542163 -0.142577
Spine  56.8199 -5.45088 11.1419
Spine1  12.0247 -0.756984 1.93211
HEad  -33.6474 -7.45678 -3.08503
LeftShoulder1  9.41913 -22.4758 -30.0862
LeftArm  -35.4172 -47.4243 -6.32008
LeftForeArm  23.573 -16.112 -3.2483
LeftHand  -0.25398 0.0180481 5.50724
RightShoulder  4.47189 13.6482 19.6266
RightArm  -24.4024 41.6817 23.5228
RightForeArm  0.370041 -3.42672 4.29576
RightHand  -1.44672 5.20113 -16.1301
LeftUpLeg  -48.2798 22.3222 -8.72689
LeftLeg  66.5578 1.64035 4.85445
LeftFoot  -5.86796 0.0697778 -0.785455
LeftToes  1.06245e-005 4.65855e-005 -8.18504e-006
354
root  33.061 36.2193 -24.7173 171.618 77.5884 158.813
RightUpLeg  -53.3367 -18.7424 11.2232
RightLeg  33.7814 1.21143 0.612846
RightFoot  5.3767 2.00302 -13.3068
RightToes  0.00048216 0.542163 -0.142577
Spine  60.0927 -5.34001 10.3881
Spine1  10.8963 -0.0149931 0.779671
HEad  -36.1654 -7.96695 -2.538
LeftShoulder1  9.49064 -23.5619 -28.8545
LeftArm  -38.9345 -50.7156 -0.76825
LeftForeArm  22.6339 -13.3929 -3.44623
LeftHand  -0.25398 0.0180481 5.50724
RightShoulder  4.15225 13.9279 17.1894
RightArm  -30.4565 46.5424 17.6967
RightForeArm  -2.76981 -3.02224 3.68858
RightHand  -1.37026 5.31176 -15.161
LeftUpLeg  -52.8618 21.9327 -11.5981
LeftLeg  55.862 2.05236 3.8332
LeftFoot  -6.82903 0.151573 -2.69453
LeftToes  1.06245e-005 4.65855e-005 -8.18504e-006
355
root  33.8091 36.184 -25.2166 169.641 78.8744 153.923
RightUpLeg  -56.273 -17.2429 10.5924
RightLeg  35.9636 0.945961 0.469568
RightFoot  4.21447 1.85341 -13.2836
RightToes  0.00048216 0.542163 -0.142577
Spine  62.6398 -5.43236 10.0298
Spine1  9.77861 0.641474 -0.676926
HEad  -38.4201 -8.39371 -2.02941
LeftShoulder1  9.59212 -24.6153 -27.857
LeftArm  -43.6896 -53.5322 5.61462
LeftForeArm  21.4372 -11.3007 -3.56317
LeftHand  -0.25398 0.0180481 5.50724
RightShoulder  3.79091 14.1801 14.5896
RightArm  -37.4804 50.057 10.9586
RightForeArm  -4.53942 -2.38992 2.89386
RightHand  -1.29239 5.59335 -13.9837
LeftUpLeg  -56.5712 21.5622 -14.3494
LeftLeg  42.9971 1.03825 1.48494
LeftFoot  -4.36141 0.414084 -6.1774
LeftToes  1.06245e-005 4.65855e-005 -8.18504e-006
356
root  34.5594 35.933 -25.8149 170.484 80.594 151.89
RightUpLeg  -59.7382 -15.5004 10.5975
RightLeg  39.196 0.583228 0.226973
RightFoot  2.17345 1.58409 -13.1697
RightToes  0.00048216 0.542163 -0.142577
Spine  64.5151 -5.56554 10.3653
Spine1  8.35551 1.32527 -2.16865
HEad  -39.8743 -8.68114 -1.5787
LeftShoulder1  9.54711 -25.6406 -26.4365
LeftArm  -49.0495 -55.5675 11.3151
LeftForeArm  20.2001 -9.87789 -3.2583
LeftHand  -0.25398 0.0180481 5.50724
RightShoulder  3.51588 14.6378 12.3232
RightArm  -44.751 52.2084 3.12498
RightForeArm  -5.09313 -2.39731 2.06729
RightHand  -1.13124 5.81663 -12.0652
LeftUpLeg  -59.84 21.3972 -16.7198
LeftLeg  32.1165 -1.27366 -0.532297
LeftFoot  2.09805 0.589299 -5.42432
LeftToes  1.06245e-005 4.65855e-005 -8.18504e-006
357
root  35.2722 35.5762 -26.4647 171.907 82.4641 150.958
RightUpLeg  -62.9074 -13.8187 10.5987
RightLeg  42.7847 0.202523 -0.105706
RightFoot  0.0412954 1.28591 -12.8283
RightToes  0.00048216 0.542163 -0.142577
Spine  66.6602 -5.67092 10.523
Spine1  7.14028 2.04181 -3.58534
HEad  -40.4583 -8.76926 -1.20595
LeftShoulder1  9.33805 -26.5727 -24.6348
LeftArm  -54.3211 -56.9631 16.3639
LeftForeArm  18.0662 -8.7069 -2.72351
LeftHand  -0.25398 0.0180481 5.50724
RightShoulder  3.31216 15.3674 10.2905
RightArm  -51.3947 53.1646 -5.10384
RightForeArm  -4.98185 -3.18155 1.33959
RightHand  -0.872522 5.9157 -9.34021
LeftUpLeg  -63.3205 21.1385 -18.57
LeftLeg  28.3963 -3.0926 -1.49721
LeftFoot  7.74715 -0.14158 0.612723
LeftToes  1.06245e-005 4.65855e-005 -8.18504e-006
358
root  35.9303 35.2136 -27.1095 170.094 84.1722 147.426
RightUpLeg  -65.4924 -12.2868 9.97486
RightLeg  46.3303 -0.29871 -0.669517
RightFoot  -1.749 1.00684 -12.0763
RightToes  0.00048216 0.542163 -0.142577
Spine  69.3165 -5.58363 10.0659
Spine1  5.97259 2.51121 -4.51298
HEad  -40.6698 -8.69066 -0.93017
LeftShoulder1  9.09264 -27.408 -22.9019
LeftArm  -59.3933 -57.8114 21.5726
LeftForeArm  14.1694 -7.62342 -2.2743
LeftHand  -0.25398 0.0180481 5.50724
RightShoulder  3.07578 16.1909 8.12746
RightArm  -56.7537 53.0708 -12.4309
RightForeArm  -5.49139 -3.74806 0.848358
RightHand  -0.635512 6.02277 -6.86988
LeftUpLeg  -66.9143 20.8974 -19.6961
LeftLeg  31.9094 -2.83636 -1.53058
LeftFoot  8.28051 -1.17948 6.61292
LeftToes  1.06245e-005 4.65855e-005 -8.18504e-006
